<svg xmlns="http://www.w3.org/2000/svg" xmlns:sketch="http://www.bohemiancoding.com/sketch/ns" xmlns:xlink="http://www.w3.org/1999/xlink" height="24" version="1.1" width="24"><rect id="backgroundrect" width="100%" height="100%" x="0" y="0" fill="none" stroke="none"/><title/><desc/><defs/><g class="currentLayer"><title>Layer 1</title><g fill="#eb1aeb" fill-rule="evenodd" id="miu" stroke="none" stroke-width="1" class="selected" fill-opacity="1" transform="rotate(0.4659459590911865 9.851487159729224,10.05204391479496) "><g id="Artboard-1" fill="#eb1aeb" fill-opacity="1"><g id="slice" fill="#eb1aeb" fill-opacity="1"/><path d="M9.85148692317307,19.0931628581591 C9.85148692317307,19.0931628581591 16.015885861590505,10.978938234084774 16.015885861590505,7.4324362368344365 C16.015885861590505,3.885934239584146 13.976537486870468,1.0109251502147694 9.85148692317307,1.0109259721346258 C5.72643635947567,1.010926794054482 3.6870879847556353,3.885934239584146 3.6870879847556353,7.4324362368344365 C3.6870879847556353,10.978938234084774 9.85148692317307,19.0931628581591 9.85148692317307,19.0931628581591 L9.85148692317307,19.0931628581591 zM9.85148692317307,9.641084485919034 C11.667222137361938,9.641084485919034 13.139166356995702,8.169140266285272 13.139166356995702,6.353405052096402 C13.139166356995702,4.537669837907534 11.667222137361938,3.0657256182737704 9.85148692317307,3.0657256182737704 C8.0357517089842,3.0657256182737704 6.563807489350438,4.537669837907534 6.563807489350438,6.353405052096402 C6.563807489350438,8.169140266285272 8.0357517089842,9.641084485919034 9.85148692317307,9.641084485919034 L9.85148692317307,9.641084485919034 z" fill="#eb1aeb" id="map-location-pin-map-marker-glyph" fill-opacity="1"/></g></g></g></svg>