<svg xmlns="http://www.w3.org/2000/svg" xmlns:sketch="http://www.bohemiancoding.com/sketch/ns" xmlns:xlink="http://www.w3.org/1999/xlink" height="24" version="1.1" width="24"><rect id="backgroundrect" width="100%" height="100%" x="0" y="0" fill="none" stroke="none"/><title/><desc/><defs/><g class="currentLayer"><title>Layer 1</title><g fill="#eb1aeb" fill-rule="evenodd" id="miu" stroke="none" stroke-width="1" class="selected" fill-opacity="1" transform="rotate(0.4659459590911865 9.266130447387246,10.895743370056252) " opacity="1"><g id="Artboard-1" fill="#eb1aeb" fill-opacity="1" opacity="1"><g id="slice" fill="#eb1aeb" fill-opacity="1" opacity="1"/><path d="M9.266130358262718,20.78529405546622 C9.266130358262718,20.78529405546622 16.00900547207798,11.90961877355072 16.00900547207798,8.030307863070503 C16.00900547207798,4.1509969525903365 13.778281675374842,1.006192822558105 9.266130358262718,1.0061937216081178 C4.753979041150593,1.0061946206581307 2.523255244447455,4.1509969525903365 2.523255244447455,8.030307863070503 C2.523255244447455,11.90961877355072 9.266130358262718,20.78529405546622 9.266130358262718,20.78529405546622 L9.266130358262718,20.78529405546622 zM9.266130358262718,10.446218880949486 C11.252256809737208,10.446218880949486 12.862330418964191,8.836145271722506 12.862330418964191,6.850018820248012 C12.862330418964191,4.86389236877352 11.252256809737208,3.2538187595465384 9.266130358262718,3.2538187595465384 C7.280003906788224,3.2538187595465384 5.669930297561244,4.86389236877352 5.669930297561244,6.850018820248012 C5.669930297561244,8.836145271722506 7.280003906788224,10.446218880949486 9.266130358262718,10.446218880949486 L9.266130358262718,10.446218880949486 z" fill="#eb1aeb" id="map-location-pin-map-marker-glyph" fill-opacity="1" opacity="1"/></g></g></g></svg>